<svg xmlns="http://www.w3.org/2000/svg" version="1.1" xmlns:xlink="http://www.w3.org/1999/xlink" xmlns:svgjs="http://svgjs.dev/svgjs" width="2000" height="1668" viewBox="0 0 2000 1668"><g transform="matrix(1,0,0,1,0.7097532314923001,0.6753036437246465)"><svg viewBox="0 0 296 247" data-background-color="#ffffff" preserveAspectRatio="xMidYMid meet" height="1668" width="2000" xmlns="http://www.w3.org/2000/svg" xmlns:xlink="http://www.w3.org/1999/xlink"><g id="tight-bounds" transform="matrix(1,0,0,1,-0.10504347826085336,-0.09999999999999432)"><svg viewBox="0 0 296.2100869565217 247.2" height="247.2" width="296.2100869565217"><g><svg viewBox="0 0 296.21008695652176 247.20000000000002" height="247.2" width="296.2100869565217"><g><svg viewBox="0 0 296.21008695652176 247.20000000000002" height="247.20000000000002" width="296.21008695652176"><g id="textblocktransform"><svg viewBox="0 0 296.21008695652176 247.20000000000002" height="247.20000000000002" width="296.21008695652176" id="textblock"><g><svg viewBox="0 0 296.21008695652176 247.20000000000002" height="247.20000000000002" width="296.21008695652176"><g><svg viewBox="0 0 296.21008695652176 247.20000000000002" height="247.20000000000002" width="296.21008695652176"><g transform="matrix(1,0,0,1,0,0)"><svg width="296.21008695652176" viewBox="5 -28.75 34.45 28.75" height="247.20000000000002" data-palette-color="#022c43"><path d="M5-28.75L5-28.75 10.7-28.75 21-19.05 21-11.5 11.3-20.65 11.3 0 5 0 5-28.75ZM39.45-28.75L39.45-28.75 33.8-28.75 23.45-19.05 23.45-11.5 33.15-20.65 33.15 0 39.45 0 39.45-28.75Z" opacity="1" transform="matrix(1,0,0,1,0,0)" fill="#022c43" class="wordmark-text-0" data-fill-palette-color="primary" id="text-0"></path></svg></g></svg></g></svg></g></svg></g></svg></g><g></g></svg></g><defs></defs></svg><rect width="296.2100869565217" height="247.2" fill="none" stroke="none" visibility="hidden"></rect></g></svg></g></svg>